<svg xmlns="http://www.w3.org/2000/svg" width="410" height="404" viewBox="0 0 410 404" fill="none">
  <path d="M399.641 59.5246L215.643 388.545C211.844 395.338 202.084 395.378 198.228 388.618L10.5817 59.5563C6.38087 52.1896 12.6802 43.2665 21.0281 44.7586L205.223 77.6824C206.398 77.8924 207.601 77.8904 208.776 77.6763L389.119 44.8058C397.439 43.2894 403.768 52.1434 399.641 59.5246Z" fill="url(#paint0_linear)"/>
  <path d="M292.965 1.5744L156.801 28.2552C155.563 28.4983 154.384 28.9991 153.351 29.7228C152.317 30.4464 151.453 31.377 150.822 32.4462C150.191 33.5155 149.807 34.6958 149.698 35.9153C149.589 37.1349 149.757 38.3623 150.192 39.5156L212.789 210.014C213.535 212.097 214.894 213.893 216.689 215.152C218.484 216.411 220.633 217.075 222.828 217.058C225.023 217.04 227.16 216.341 228.931 215.054C230.703 213.767 232.021 211.964 232.698 209.868L308.297 33.2142C309.877 28.863 307.003 24.1511 302.473 24.9654L209.111 41.6999C207.052 42.071 205.215 43.1912 203.934 44.8613C202.654 46.5314 202.021 48.6259 202.169 50.7446L208.395 138.627C208.462 139.604 208.713 140.561 209.133 141.449C209.553 142.338 210.135 143.143 210.845 143.822C211.554 144.501 212.379 145.042 213.279 145.414C214.179 145.787 215.139 145.985 216.109 146.001C217.079 146.018 218.045 145.851 218.964 145.51C219.883 145.169 220.74 144.66 221.494 144.008C222.247 143.356 222.885 142.572 223.378 141.69C223.87 140.809 224.208 139.846 224.377 138.84L230.091 103.808C230.304 102.555 230.911 101.391 231.822 100.5C232.733 99.6087 233.898 99.0323 235.153 98.857L280.511 92.2941C284.85 91.667 287.694 86.9363 285.786 83.0044L264.294 38.727C263.39 36.8504 261.849 35.3456 259.949 34.4631C258.05 33.5806 255.904 33.3736 253.889 33.8726L213.908 43.8618C212.845 44.131 211.836 44.5937 210.949 45.225C210.061 45.8562 209.314 46.6463 208.75 47.5512L180.641 95.1987C178.503 98.8387 179.721 103.441 183.26 105.657L237.468 138.405C238.507 139.027 239.663 139.41 240.864 139.529C242.066 139.647 243.288 139.499 244.429 139.099C245.569 138.699 246.599 138.057 247.444 137.223C248.289 136.389 248.931 135.383 249.324 134.279L277.979 51.7999C278.675 49.7626 278.273 47.5043 276.914 45.8886C275.555 44.2729 273.361 43.5016 271.183 43.8713L222.74 52.0414C221.683 52.2128 220.668 52.617 219.771 53.2241C218.874 53.8311 218.116 54.6264 217.555 55.5512L175.087 128.991C172.91 132.692 174.629 137.439 178.663 138.726L241.052 159.14C243.485 159.907 246.099 159.645 248.341 158.412C250.584 157.179 252.27 155.058 253.014 152.524L295.45 12.1686C296.366 9.12298 294.076 5.8843 290.904 5.39095L155.936 0.541243C153.181 0.00793457 150.376 1.35652 149.007 3.72014C147.638 6.08376 147.982 9.05674 149.911 10.976L207.602 68.667C208.472 69.5369 209.56 70.1036 210.729 70.3024C211.899 70.5012 213.103 70.3227 214.16 69.7935L340.442 6.78233C346.653 3.63435 354.143 7.98706 353.06 14.8259L325.058 193.531C324.706 195.831 325.135 198.175 326.283 200.204C327.43 202.233 329.228 203.842 331.411 204.732C333.594 205.622 336.04 205.74 338.324 205.07C340.608 204.399 342.579 202.993 343.895 201.07L403.35 110.975C405.712 107.361 404.354 102.286 400.561 100.334L292.965 1.5744Z" fill="#FFD166"/>
  <defs>
    <linearGradient id="paint0_linear" x1="6.00017" y1="32.9999" x2="235" y2="344" gradientUnits="userSpaceOnUse">
      <stop stop-color="#41D1FF"/>
      <stop offset="1" stop-color="#BD34FE"/>
    </linearGradient>
  </defs>
</svg>
